<svg width="200" height="60" viewBox="0 0 200 60" fill="none" xmlns="http://www.w3.org/2000/svg">
<g clip-path="url(#clip0_615_3433)">
<g filter="url(#filter0_d_615_3433)">
<path fill-rule="evenodd" clip-rule="evenodd" d="M40.5918 29.12C39.6871 26.3248 38.2342 23.6655 36.4998 21.2899C34.4369 18.4651 31.9953 15.927 30.1548 12.9589C28.3144 9.99089 27.0958 6.40974 27.8591 2.99847C23.3672 7.30337 20.1911 12.802 18.7026 18.8507C18.7321 18.734 17.733 18.3765 17.7301 13.9621C17.7293 13.9609 17.7282 13.9599 17.7269 13.9592C17.7256 13.9585 17.7242 13.9581 17.7227 13.9581C17.7213 13.9581 17.7198 13.9585 17.7185 13.9592C17.7173 13.9599 17.7162 13.9609 17.7153 13.9621C15.813 16.7174 15.0085 18.3115 14.4913 19.3708C13.4598 21.4731 12.6346 23.6685 11.861 25.8712C10.5496 29.6134 9.60507 33.6053 10.1635 37.5322C10.8767 42.5405 14.1671 47.1041 18.679 49.3645C23.191 51.6249 28.7992 51.5303 33.2375 49.1281C37.6757 46.7259 40.8305 42.084 41.4524 37.0638C41.7839 34.3809 41.4229 31.701 40.5918 29.12Z" fill="url(#paint0_linear_615_3433)"/>
<path fill-rule="evenodd" clip-rule="evenodd" d="M23.6316 11.3738C22.9813 12.7796 22.5252 14.2677 22.2759 15.7971C22.0519 17.1799 21.8147 18.3485 22.3098 19.8332C22.6089 20.7751 23.2251 21.5835 24.053 22.1202C24.9283 22.6565 25.8345 23.1544 26.888 23.178C25.1198 23.1278 23.3148 23.2017 21.6246 23.7409C18.7085 24.6717 16.3273 27.2704 16.6146 30.5088C16.6972 31.4159 17.1319 32.3437 17.8716 32.8933C18.763 33.5566 19.992 33.3764 20.9954 33.072C23.1674 32.4131 25.0962 31.1263 27.28 30.5043C27.7486 30.3699 28.2923 30.3566 28.6843 30.6447C29.0143 30.89 29.1735 31.3081 29.2324 31.7158C29.8012 35.6442 24.1222 37.3904 21.411 38.6196C20.4694 39.0466 19.5381 39.6729 19.1506 40.6347C18.6555 41.8595 19.1948 43.2822 20.0347 44.3016C21.772 46.4098 24.722 47.2977 27.4215 46.9017C31.2688 46.3374 34.8347 43.5038 36.242 39.8694C38.5834 33.824 36.9345 28.9235 33.9418 23.9359C32.4801 21.4982 29.2678 18.1742 28.0241 15.4144C26.8571 12.8231 26.1896 9.38229 26.5152 6.55016C25.1228 7.95071 24.4612 9.5832 23.6316 11.3738Z" fill="#FFD000"/>
<path fill-rule="evenodd" clip-rule="evenodd" d="M27.252 50.9276C27.252 50.9276 38.2887 44.5912 34.795 34.2244C38.2887 38.3271 35.8824 43.9367 34.8421 45.2545C31.7581 49.1681 27.252 50.9276 27.252 50.9276Z" fill="url(#paint1_linear_615_3433)"/>
<path fill-rule="evenodd" clip-rule="evenodd" d="M27.252 50.9276C30.5881 48.7558 32.6348 46.59 34.4487 43.913C35.5819 42.2406 36.3171 40.3525 36.3879 38.4172C36.5352 34.3677 35.0116 30.822 33.4732 27.1699C38.5613 34.5184 35.9281 27.786 32.654 22.073C35.6128 25.3616 38.3491 28.9398 38.6644 33.5167C38.7997 35.4655 38.5764 37.4225 38.0058 39.2903C37.4164 41.2109 36.4969 42.6336 35.4095 44.3134C34.3957 45.872 33.1903 47.1071 31.6313 48.385C30.3052 49.4739 28.8876 50.4652 27.252 50.9335" fill="url(#paint2_linear_615_3433)"/>
<path fill-rule="evenodd" clip-rule="evenodd" d="M27.252 50.9276C31.761 49.041 35.3726 45.0758 37.3913 40.6156C39.4837 35.9973 38.6394 30.3064 36.4615 25.8595C35.2429 23.3701 33.6619 21.3934 33.2375 18.5539C32.8654 15.8643 33.2185 13.1239 34.2601 10.6174C33.5926 12.4597 34.3588 14.1276 35.0779 15.9507C36.2435 18.9055 37.8938 20.7758 39.3349 23.6035C42.0152 28.8615 42.724 35.7712 40.4298 41.1681C38.1178 46.5975 33.1328 50.6115 27.252 50.9276Z" fill="url(#paint3_linear_615_3433)"/>
</g>
<g filter="url(#filter1_d_615_3433)">
<path d="M56.7163 21.9036V29.5948H70.0738V34.9991H56.7163V45.6066H52.894C52.1264 45.6066 51.3904 45.3009 50.8476 44.7568C50.3049 44.2126 50 43.4746 50 42.7051V19.4009C50 18.6314 50.3049 17.8933 50.8476 17.3492C51.3904 16.805 52.1264 16.4993 52.894 16.4993H70.062V21.9036H56.7163Z" fill="#292929"/>
</g>
<g filter="url(#filter2_d_615_3433)">
<path d="M124.93 31.05C124.93 22.2774 131.648 16 140.687 16C145.697 16 149.892 17.8305 152.622 21.156L148.309 25.145C146.361 22.8993 143.915 21.7366 141.012 21.7366C135.581 21.7366 131.729 25.5601 131.729 31.0441C131.729 36.5281 135.585 40.3516 141.012 40.3516C143.915 40.3516 146.361 39.1874 148.309 36.9005L152.622 40.8894C149.886 44.2578 145.697 46.0868 140.639 46.0868C131.655 46.0986 124.93 39.8212 124.93 31.05Z" fill="#292929"/>
</g>
<g filter="url(#filter3_d_615_3433)">
<path d="M181.481 19.4009V42.6977C181.481 43.0789 181.406 43.4563 181.261 43.8084C181.115 44.1605 180.902 44.4805 180.633 44.7499C180.364 45.0194 180.045 45.2331 179.693 45.3788C179.342 45.5245 178.966 45.5994 178.586 45.5992H174.763V33.6679H161.578V45.6066H154.862V16.5023H161.578V27.9756H174.763V16.5023H178.586C179.353 16.5023 180.089 16.8075 180.631 17.351C181.174 17.8945 181.48 18.6318 181.481 19.4009Z" fill="#292929"/>
</g>
<g filter="url(#filter4_d_615_3433)">
<path d="M115.648 16.5023V34.1703L101.22 16.5023H94.5888V29.0319L100.834 36.6921C101.1 35.4114 101.23 34.106 101.223 32.7978V26.8114L116.773 45.6066H122.287V16.5023H115.648Z" fill="#292929"/>
</g>
<g filter="url(#filter5_d_615_3433)">
<path d="M92.8485 30.6925V32.5466C92.8485 38.075 90.4909 40.3619 86.3813 40.3619C82.3173 40.3619 79.9125 38.075 79.9125 32.5466V16.5023H73.1947V32.7978C73.1947 41.3666 78.0883 46.0942 86.3385 46.0942C92.7469 46.0942 97.1277 43.234 98.7662 37.9464L92.8485 30.6925Z" fill="#292929"/>
</g>
<g filter="url(#filter6_d_615_3433)">
<path fill-rule="evenodd" clip-rule="evenodd" d="M144.908 30.5374C144.63 29.7098 144.223 28.9315 143.703 28.2312C143.099 27.3994 142.377 26.6519 141.834 25.7788C141.292 24.9056 140.934 23.8493 141.158 22.8447C139.835 24.1125 138.9 25.7318 138.461 27.5132C138.47 27.4792 138.176 27.3743 138.176 26.0742C137.816 26.5785 137.499 27.1111 137.225 27.6668C136.93 28.2914 136.671 28.9327 136.45 29.5874C136.064 30.6896 135.787 31.8656 135.951 33.0223C136.063 33.7607 136.348 34.4617 136.784 35.0677C137.22 35.6736 137.792 36.1671 138.456 36.5074C139.125 36.8354 139.863 37.0001 140.609 36.988C141.354 36.9759 142.086 36.7875 142.745 36.438C143.397 36.0766 143.956 35.5669 144.376 34.9499C144.796 34.3328 145.066 33.6256 145.164 32.8849C145.252 32.093 145.165 31.2914 144.908 30.5374Z" fill="url(#paint4_linear_615_3433)"/>
</g>
</g>
<defs>
<filter id="filter0_d_615_3433" x="1.99973" y="-1.00153" width="47.8086" height="63.9985" filterUnits="userSpaceOnUse" color-interpolation-filters="sRGB">
<feFlood flood-opacity="0" result="BackgroundImageFix"/>
<feColorMatrix in="SourceAlpha" type="matrix" values="0 0 0 0 0 0 0 0 0 0 0 0 0 0 0 0 0 0 127 0" result="hardAlpha"/>
<feOffset dy="4"/>
<feGaussianBlur stdDeviation="4"/>
<feComposite in2="hardAlpha" operator="out"/>
<feColorMatrix type="matrix" values="0 0 0 0 0 0 0 0 0 0 0 0 0 0 0 0 0 0 0.4 0"/>
<feBlend mode="normal" in2="BackgroundImageFix" result="effect1_dropShadow_615_3433"/>
<feBlend mode="normal" in="SourceGraphic" in2="effect1_dropShadow_615_3433" result="shape"/>
</filter>
<filter id="filter1_d_615_3433" x="46" y="16.4993" width="28.0738" height="37.1073" filterUnits="userSpaceOnUse" color-interpolation-filters="sRGB">
<feFlood flood-opacity="0" result="BackgroundImageFix"/>
<feColorMatrix in="SourceAlpha" type="matrix" values="0 0 0 0 0 0 0 0 0 0 0 0 0 0 0 0 0 0 127 0" result="hardAlpha"/>
<feOffset dy="4"/>
<feGaussianBlur stdDeviation="2"/>
<feComposite in2="hardAlpha" operator="out"/>
<feColorMatrix type="matrix" values="0 0 0 0 0 0 0 0 0 0 0 0 0 0 0 0 0 0 0.25 0"/>
<feBlend mode="normal" in2="BackgroundImageFix" result="effect1_dropShadow_615_3433"/>
<feBlend mode="normal" in="SourceGraphic" in2="effect1_dropShadow_615_3433" result="shape"/>
</filter>
<filter id="filter2_d_615_3433" x="120.93" y="16" width="35.6919" height="38.0868" filterUnits="userSpaceOnUse" color-interpolation-filters="sRGB">
<feFlood flood-opacity="0" result="BackgroundImageFix"/>
<feColorMatrix in="SourceAlpha" type="matrix" values="0 0 0 0 0 0 0 0 0 0 0 0 0 0 0 0 0 0 127 0" result="hardAlpha"/>
<feOffset dy="4"/>
<feGaussianBlur stdDeviation="2"/>
<feComposite in2="hardAlpha" operator="out"/>
<feColorMatrix type="matrix" values="0 0 0 0 0 0 0 0 0 0 0 0 0 0 0 0 0 0 0.25 0"/>
<feBlend mode="normal" in2="BackgroundImageFix" result="effect1_dropShadow_615_3433"/>
<feBlend mode="normal" in="SourceGraphic" in2="effect1_dropShadow_615_3433" result="shape"/>
</filter>
<filter id="filter3_d_615_3433" x="150.862" y="16.5023" width="34.6192" height="37.1044" filterUnits="userSpaceOnUse" color-interpolation-filters="sRGB">
<feFlood flood-opacity="0" result="BackgroundImageFix"/>
<feColorMatrix in="SourceAlpha" type="matrix" values="0 0 0 0 0 0 0 0 0 0 0 0 0 0 0 0 0 0 127 0" result="hardAlpha"/>
<feOffset dy="4"/>
<feGaussianBlur stdDeviation="2"/>
<feComposite in2="hardAlpha" operator="out"/>
<feColorMatrix type="matrix" values="0 0 0 0 0 0 0 0 0 0 0 0 0 0 0 0 0 0 0.25 0"/>
<feBlend mode="normal" in2="BackgroundImageFix" result="effect1_dropShadow_615_3433"/>
<feBlend mode="normal" in="SourceGraphic" in2="effect1_dropShadow_615_3433" result="shape"/>
</filter>
<filter id="filter4_d_615_3433" x="90.5888" y="16.5023" width="35.6978" height="37.1044" filterUnits="userSpaceOnUse" color-interpolation-filters="sRGB">
<feFlood flood-opacity="0" result="BackgroundImageFix"/>
<feColorMatrix in="SourceAlpha" type="matrix" values="0 0 0 0 0 0 0 0 0 0 0 0 0 0 0 0 0 0 127 0" result="hardAlpha"/>
<feOffset dy="4"/>
<feGaussianBlur stdDeviation="2"/>
<feComposite in2="hardAlpha" operator="out"/>
<feColorMatrix type="matrix" values="0 0 0 0 0 0 0 0 0 0 0 0 0 0 0 0 0 0 0.25 0"/>
<feBlend mode="normal" in2="BackgroundImageFix" result="effect1_dropShadow_615_3433"/>
<feBlend mode="normal" in="SourceGraphic" in2="effect1_dropShadow_615_3433" result="shape"/>
</filter>
<filter id="filter5_d_615_3433" x="69.1947" y="16.5023" width="33.5715" height="37.5919" filterUnits="userSpaceOnUse" color-interpolation-filters="sRGB">
<feFlood flood-opacity="0" result="BackgroundImageFix"/>
<feColorMatrix in="SourceAlpha" type="matrix" values="0 0 0 0 0 0 0 0 0 0 0 0 0 0 0 0 0 0 127 0" result="hardAlpha"/>
<feOffset dy="4"/>
<feGaussianBlur stdDeviation="2"/>
<feComposite in2="hardAlpha" operator="out"/>
<feColorMatrix type="matrix" values="0 0 0 0 0 0 0 0 0 0 0 0 0 0 0 0 0 0 0.25 0"/>
<feBlend mode="normal" in2="BackgroundImageFix" result="effect1_dropShadow_615_3433"/>
<feBlend mode="normal" in="SourceGraphic" in2="effect1_dropShadow_615_3433" result="shape"/>
</filter>
<filter id="filter6_d_615_3433" x="131.903" y="22.8447" width="17.295" height="22.1439" filterUnits="userSpaceOnUse" color-interpolation-filters="sRGB">
<feFlood flood-opacity="0" result="BackgroundImageFix"/>
<feColorMatrix in="SourceAlpha" type="matrix" values="0 0 0 0 0 0 0 0 0 0 0 0 0 0 0 0 0 0 127 0" result="hardAlpha"/>
<feOffset dy="4"/>
<feGaussianBlur stdDeviation="2"/>
<feComposite in2="hardAlpha" operator="out"/>
<feColorMatrix type="matrix" values="0 0 0 0 0 0 0 0 0 0 0 0 0 0 0 0 0 0 0.25 0"/>
<feBlend mode="normal" in2="BackgroundImageFix" result="effect1_dropShadow_615_3433"/>
<feBlend mode="normal" in="SourceGraphic" in2="effect1_dropShadow_615_3433" result="shape"/>
</filter>
<linearGradient id="paint0_linear_615_3433" x1="22.0681" y1="55.4705" x2="31.3066" y2="4.72958" gradientUnits="userSpaceOnUse">
<stop stop-color="#BA0000"/>
<stop offset="0.11" stop-color="#C31101"/>
<stop offset="0.53" stop-color="#E34A05"/>
<stop offset="0.84" stop-color="#F76E07"/>
<stop offset="1" stop-color="#FF7C08"/>
</linearGradient>
<linearGradient id="paint1_linear_615_3433" x1="34.0317" y1="34.2362" x2="29.2851" y2="59.8584" gradientUnits="userSpaceOnUse">
<stop stop-color="#FFC700"/>
<stop offset="0.26" stop-color="#FF980C"/>
<stop offset="0.6" stop-color="#FF5F1A"/>
<stop offset="0.86" stop-color="#FF3B24"/>
<stop offset="1" stop-color="#FF2D27"/>
</linearGradient>
<linearGradient id="paint2_linear_615_3433" x1="-39494.4" y1="71859.4" x2="-40413.6" y2="78860.6" gradientUnits="userSpaceOnUse">
<stop stop-color="#FFC700"/>
<stop offset="0.26" stop-color="#FF980C"/>
<stop offset="0.6" stop-color="#FF5F1A"/>
<stop offset="0.86" stop-color="#FF3B24"/>
<stop offset="1" stop-color="#FF2D27"/>
</linearGradient>
<linearGradient id="paint3_linear_615_3433" x1="-50187.2" y1="99393.5" x2="-50187.2" y2="107333" gradientUnits="userSpaceOnUse">
<stop stop-color="#FFC700"/>
<stop offset="0.26" stop-color="#FF980C"/>
<stop offset="0.6" stop-color="#FF5F1A"/>
<stop offset="0.86" stop-color="#FF3B24"/>
<stop offset="1" stop-color="#FF2D27"/>
</linearGradient>
<linearGradient id="paint4_linear_615_3433" x1="136.757" y1="49.2513" x2="142.92" y2="21.7095" gradientUnits="userSpaceOnUse">
<stop stop-color="#BA0000"/>
<stop offset="0.11" stop-color="#C31101"/>
<stop offset="0.53" stop-color="#E34A05"/>
<stop offset="0.83" stop-color="#F76E07"/>
<stop offset="0.99" stop-color="#FF7C08"/>
</linearGradient>
<clipPath id="clip0_615_3433">
<rect width="200" height="60" fill="white"/>
</clipPath>
</defs>
</svg>
